<svg xmlns="http://www.w3.org/2000/svg" class="u-svg-content" viewBox="0 0 512 512" x="0px" y="0px" fill="#292870" id="svg-4812" style="enable-background:new 0 0 512 512;"><g><path d="M467,181.003H285.509c18.206-30.58,18.794-58.762,9.541-79.51C283.74,76.136,257.928,60.997,226,60.997   c-8.284,0-15,6.716-15,15l0.002,2.399c0.03,32.535,0.045,48.866-56.064,80.907c-23.585,13.468-51.901,21.168-79.748,21.688H75   c-0.078,0-0.154,0.011-0.232,0.012H15c-8.284,0-15,6.716-15,15v210c0,8.284,6.716,15,15,15h57.542   c41.217,13.832,83.137,30,126.747,30H316c24.813,0,45-20.187,45-45c0-5.856-1.136-11.449-3.181-16.586   C376.916,384.212,391,366.726,391,346.003c0-5.856-1.136-11.449-3.181-16.586C406.916,324.212,421,306.726,421,286.003   c0-5.258-0.915-10.305-2.58-15H467c24.813,0,45-20.187,45-45S491.813,181.003,467,181.003z M30,211.003h30v180H30V211.003z    M467,241.003c-20.155,0-157.146,0-181,0c-8.284,0-15,6.716-15,15s6.716,15,15,15c11.219,0,80.184,0,90,0c8.271,0,15,6.729,15,15   s-6.729,15-15,15h-90c-8.284,0-15,6.716-15,15s6.716,15,15,15h60c8.271,0,15,6.729,15,15s-6.729,15-15,15h-60   c-8.284,0-15,6.716-15,15s6.716,15,15,15h30c8.271,0,15,6.729,15,15s-6.729,15-15,15H199.288   c-36.166,0-74.45-13.902-109.288-25.766V210.193c28.248-2.539,55.589-11.004,79.814-24.838   c47.378-27.055,69.415-49.872,71.019-92.652c12.631,3.116,22.086,10.4,26.818,21.01c8.13,18.231,1.096,43.063-18.802,67.291H226   c-8.284,0-15,6.716-15,15s6.716,15,15,15h241c8.271,0,15,6.729,15,15S475.271,241.003,467,241.003z"></path><circle cx="226" cy="375.997" r="15"></circle><circle cx="226" cy="315.997" r="15"></circle><circle cx="226" cy="255.997" r="15"></circle></g></svg>